<svg width="278" height="78" viewBox="0 0 278 78" fill="none" xmlns="http://www.w3.org/2000/svg">
<path d="M91 39C91 60.5391 73.763 78 52.5 78C31.237 78 14 60.5391 14 39C14 17.4609 31.237 0 52.5 0C73.763 0 91 17.4609 91 39Z" fill="#4F1E5B"/>
<path d="M62 47C62 64.1208 48.1208 78 31 78C13.8792 78 0 64.1208 0 47C0 29.8792 13.8792 16 31 16C48.1208 16 62 29.8792 62 47Z" fill="black"/>
<path d="M66.508 58H74.012C79.584 58 83.42 53.548 83.42 47.752C83.42 40.276 77.792 37.616 74.012 37.616H66.508C65.556 37.616 64.8 38.372 64.8 39.296C64.8 40.276 65.528 41.004 66.536 41.004H74.012C76.028 41.004 80.032 42.292 80.032 47.752C80.032 51.644 77.792 54.612 74.012 54.612H66.536C65.528 54.612 64.8 55.34 64.8 56.32C64.8 57.244 65.556 58 66.508 58Z" fill="white"/>
<path d="M90.7346 58H103.895C104.819 58 105.575 57.244 105.575 56.32C105.575 55.368 104.819 54.612 103.895 54.612H92.4146V50.468H100.199C101.123 50.468 101.879 49.712 101.879 48.788C101.879 47.836 101.123 47.08 100.199 47.08H90.7626C89.7546 47.08 89.0266 47.808 89.0266 48.816V56.32C89.0266 57.244 89.7826 58 90.7346 58ZM89.0266 39.296C89.0266 40.276 89.7546 41.004 90.7626 41.004H103.895C104.819 41.004 105.575 40.248 105.575 39.296C105.575 38.372 104.819 37.616 103.895 37.616H90.7346C89.7826 37.616 89.0266 38.372 89.0266 39.296Z" fill="white"/>
<path d="M113.731 58H126.891C127.815 58 128.571 57.244 128.571 56.32C128.571 55.368 127.815 54.612 126.891 54.612H115.411V50.468H123.195C124.119 50.468 124.875 49.712 124.875 48.788C124.875 47.836 124.119 47.08 123.195 47.08H113.759C112.751 47.08 112.023 47.808 112.023 48.816V56.32C112.023 57.244 112.779 58 113.731 58ZM112.023 39.296C112.023 40.276 112.751 41.004 113.759 41.004H126.891C127.815 41.004 128.571 40.248 128.571 39.296C128.571 38.372 127.815 37.616 126.891 37.616H113.731C112.779 37.616 112.023 38.372 112.023 39.296Z" fill="white"/>
<path d="M136.699 58C137.651 58 138.407 57.244 138.407 56.32V50.468H145.659C148.851 50.468 151.707 48.06 151.707 44C151.707 39.8 148.711 37.616 145.659 37.616H136.699C135.775 37.616 135.019 38.372 135.019 39.296C135.019 40.276 135.747 41.004 136.755 41.004H145.659C146.639 41.004 148.319 41.816 148.319 44C148.319 45.96 146.975 47.08 145.659 47.08H136.755C135.747 47.08 135.019 47.808 135.019 48.816V56.32C135.019 57.244 135.775 58 136.699 58Z" fill="white"/>
<path d="M177.867 58.448C182.599 58.448 186.911 56.432 186.827 51.98C186.715 47.752 182.319 46.296 178.119 45.624C176.299 45.372 173.051 44.84 173.051 42.964C172.939 41.032 175.739 40.472 177.867 40.472C179.771 40.472 182.431 41.2 183.075 42.628C183.439 43.496 184.419 43.916 185.287 43.552C186.155 43.188 186.547 42.208 186.183 41.34C185.119 38.792 181.787 37.084 177.867 37.084C173.611 37.084 169.495 38.96 169.663 43.104C169.803 47.08 173.695 48.396 177.615 48.984C179.743 49.292 183.327 49.936 183.439 52.092C183.551 54.444 180.051 55.06 177.867 55.06C174.591 55.06 172.183 53.66 171.847 52.372C171.595 51.448 170.671 50.916 169.775 51.168C168.879 51.42 168.347 52.344 168.571 53.24C169.523 56.768 174.031 58.448 177.867 58.448Z" fill="white"/>
<path d="M194.093 58C195.045 58 195.801 57.244 195.801 56.32V50.468H203.053C206.245 50.468 209.101 48.06 209.101 44C209.101 39.8 206.105 37.616 203.053 37.616H194.093C193.169 37.616 192.413 38.372 192.413 39.296C192.413 40.276 193.141 41.004 194.149 41.004H203.053C204.033 41.004 205.713 41.816 205.713 44C205.713 45.96 204.369 47.08 203.053 47.08H194.149C193.141 47.08 192.413 47.808 192.413 48.816V56.32C192.413 57.244 193.169 58 194.093 58Z" fill="white"/>
<path d="M211.986 57.804C212.798 58.252 213.834 57.916 214.254 57.076L221.562 42.992L228.842 57.076C229.29 57.944 230.354 58.224 231.138 57.804C231.95 57.384 232.286 56.348 231.866 55.536L223.046 38.54C222.766 37.98 222.178 37.616 221.562 37.616C220.918 37.616 220.33 37.98 220.05 38.54L211.258 55.536C210.838 56.348 211.146 57.384 211.986 57.804Z" fill="white"/>
<path d="M247.137 58.448C249.349 58.448 251.505 57.804 253.325 56.544C254.109 56.012 254.305 54.976 253.773 54.192C253.269 53.436 252.205 53.212 251.421 53.744C250.161 54.612 248.677 55.06 247.137 55.06C242.965 55.06 239.605 51.728 239.605 47.752C239.605 43.692 243.049 40.444 247.137 40.444C248.649 40.444 250.105 40.892 251.337 41.704C252.037 42.208 253.157 42.04 253.689 41.228C254.193 40.444 253.997 39.408 253.213 38.876C251.421 37.7 249.293 37.084 247.137 37.084C240.921 37.084 236.245 41.984 236.245 47.752C236.245 53.828 241.229 58.448 247.137 58.448Z" fill="white"/>
<path d="M262.235 58H275.395C276.319 58 277.075 57.244 277.075 56.32C277.075 55.368 276.319 54.612 275.395 54.612H263.915V50.468H271.699C272.623 50.468 273.379 49.712 273.379 48.788C273.379 47.836 272.623 47.08 271.699 47.08H262.263C261.255 47.08 260.527 47.808 260.527 48.816V56.32C260.527 57.244 261.283 58 262.235 58ZM260.527 39.296C260.527 40.276 261.255 41.004 262.263 41.004H275.395C276.319 41.004 277.075 40.248 277.075 39.296C277.075 38.372 276.319 37.616 275.395 37.616H262.235C261.283 37.616 260.527 38.372 260.527 39.296Z" fill="white"/>
</svg>
