<svg width="40" height="40" viewBox="0 0 40 40" fill="none" xmlns="http://www.w3.org/2000/svg">
<path d="M12.35 39.95C11.35 39.95 10.5 39.6 9.79999 38.9C9.09999 38.2 8.74999 37.35 8.74999 36.35C8.74999 35.35 9.09999 34.5 9.79999 33.8C10.5 33.1 11.35 32.75 12.35 32.75C13.3167 32.75 14.1583 33.1 14.875 33.8C15.5917 34.5 15.95 35.35 15.95 36.35C15.95 37.35 15.6 38.2 14.9 38.9C14.2 39.6 13.35 39.95 12.35 39.95V39.95ZM32.35 39.95C31.35 39.95 30.5 39.6 29.8 38.9C29.1 38.2 28.75 37.35 28.75 36.35C28.75 35.35 29.1 34.5 29.8 33.8C30.5 33.1 31.35 32.75 32.35 32.75C33.3167 32.75 34.1583 33.1 34.875 33.8C35.5917 34.5 35.95 35.35 35.95 36.35C35.95 37.35 35.6 38.2 34.9 38.9C34.2 39.6 33.35 39.95 32.35 39.95V39.95ZM9.74999 6.95L15.25 18.35H29.65L35.9 6.95H9.74999ZM11.85 29.55C10.45 29.55 9.44165 29.0833 8.82499 28.15C8.20832 27.2167 8.21665 26.1667 8.84999 25L12.05 19.1L4.44999 3H1.99999C1.59999 3 1.25832 2.85 0.974988 2.55C0.691654 2.25 0.549988 1.88333 0.549988 1.45C0.549988 1.05 0.691654 0.708334 0.974988 0.425C1.25832 0.141667 1.61665 0 2.04999 0H5.44999C5.74999 0 6.01665 0.0749999 6.24999 0.225C6.48332 0.375 6.66665 0.583333 6.79999 0.85L8.24999 3.95H37.7C38.7667 3.95 39.4417 4.275 39.725 4.925C40.0083 5.575 39.9167 6.3 39.45 7.1L32.7 19.25C32.3667 19.8167 31.9 20.3083 31.3 20.725C30.7 21.1417 30.05 21.35 29.35 21.35H14.2L11.4 26.55H34.5C34.9 26.55 35.2417 26.7 35.525 27C35.8083 27.3 35.95 27.65 35.95 28.05C35.95 28.4833 35.8083 28.8417 35.525 29.125C35.2417 29.4083 34.8833 29.55 34.45 29.55H11.85ZM15.25 18.35H29.65H15.25Z" fill="white"/>
</svg>
