<svg width="43" height="42" viewBox="0 0 43 42" fill="none" xmlns="http://www.w3.org/2000/svg">
<path d="M22.1 40C19.3333 40 16.7333 39.475 14.3 38.425C11.8667 37.375 9.75 35.95 7.95 34.15C6.15 32.35 4.725 30.2333 3.675 27.8C2.625 25.3667 2.1 22.7667 2.1 20C2.1 17.7667 2.43333 15.65 3.1 13.65C3.76667 11.65 4.71667 9.81667 5.95 8.15L0.45 2.65C0.15 2.35 0 1.99167 0 1.575C0 1.15833 0.15 0.8 0.45 0.5C0.75 0.2 1.10833 0.0500002 1.525 0.0500002C1.94167 0.0500002 2.3 0.2 2.6 0.5L40.85 38.75C41.15 39.05 41.3 39.4 41.3 39.8C41.3 40.2 41.15 40.55 40.85 40.85C40.55 41.15 40.1917 41.3 39.775 41.3C39.3583 41.3 39 41.15 38.7 40.85L33.95 36.15C32.2833 37.3833 30.45 38.3333 28.45 39C26.45 39.6667 24.3333 40 22.1 40ZM19.95 36.95V32.85C18.7833 32.85 17.8 32.4167 17 31.55C16.2 30.6833 15.8 29.6667 15.8 28.5V26.3L5.55 16.05C5.38333 16.7167 5.26667 17.375 5.2 18.025C5.13333 18.675 5.1 19.3333 5.1 20C5.1 24.3333 6.50833 28.1167 9.325 31.35C12.1417 34.5833 15.6833 36.45 19.95 36.95ZM38.25 31.85L36.1 29.7C37.0667 28.2667 37.8083 26.725 38.325 25.075C38.8417 23.425 39.1 21.7333 39.1 20C39.1 16.4667 38.1333 13.2583 36.2 10.375C34.2667 7.49167 31.6833 5.38333 28.45 4.05V4.95C28.45 6.11667 28.05 7.13333 27.25 8C26.45 8.86667 25.4667 9.3 24.3 9.3H19.95V13.55L10.25 3.85C11.9167 2.61667 13.75 1.66667 15.75 1C17.75 0.333333 19.8667 0 22.1 0C24.8667 0 27.4667 0.525 29.9 1.575C32.3333 2.625 34.45 4.05 36.25 5.85C38.05 7.65 39.475 9.76667 40.525 12.2C41.575 14.6333 42.1 17.2333 42.1 20C42.1 22.2333 41.7667 24.35 41.1 26.35C40.4333 28.35 39.4833 30.1833 38.25 31.85V31.85Z" fill="white"/>
</svg>
